<?xml version="1.0" encoding="UTF-8"?>
<svg xmlns="http://www.w3.org/2000/svg" xmlns:xlink="http://www.w3.org/1999/xlink" width="100pt" height="100pt" viewBox="0 0 100 100" version="1.1">
<defs>
<clipPath id="clip1">
  <path d="M 15 25 L 100 25 L 100 100 L 15 100 Z M 15 25 "/>
</clipPath>
<clipPath id="clip2">
  <path d="M 100 50 C 100 77.613281 77.613281 100 50 100 C 22.386719 100 0 77.613281 0 50 C 0 22.386719 22.386719 0 50 0 C 77.613281 0 100 22.386719 100 50 Z M 100 50 "/>
</clipPath>
<clipPath id="clip3">
  <path d="M 14 24 L 86 24 L 86 76 L 14 76 Z M 14 24 "/>
</clipPath>
<clipPath id="clip4">
  <path d="M 81.988281 75.738281 L 18.011719 75.738281 C 16.285156 75.738281 14.886719 74.339844 14.886719 72.613281 L 14.886719 27.386719 C 14.886719 25.660156 16.285156 24.261719 18.011719 24.261719 L 81.988281 24.261719 C 83.714844 24.261719 85.113281 25.660156 85.113281 27.386719 L 85.113281 72.613281 C 85.113281 74.339844 83.714844 75.738281 81.988281 75.738281 Z M 81.988281 75.738281 "/>
</clipPath>
<filter id="alpha" filterUnits="objectBoundingBox" x="0%" y="0%" width="100%" height="100%">
  <feColorMatrix type="matrix" in="SourceGraphic" values="0 0 0 0 1 0 0 0 0 1 0 0 0 0 1 0 0 0 1 0"/>
</filter>
<mask id="mask0">
  <g filter="url(#alpha)">
<rect x="0" y="0" width="100" height="100" style="fill:rgb(0%,0%,0%);fill-opacity:0.8;stroke:none;"/>
  </g>
</mask>
<clipPath id="clip5">
  <rect width="100" height="100"/>
</clipPath>
<g id="surface7" clip-path="url(#clip5)">
<path style=" stroke:none;fill-rule:nonzero;fill:rgb(88.235294%,89.019608%,91.372549%);fill-opacity:1;" d="M 24.113281 55.355469 L 44.875 76.171875 L 85.9375 76.171875 L 85.9375 62.160156 L 75.886719 52.082031 L 65.992188 49.78125 L 56.089844 39.886719 L 50.292969 52.492188 L 41.777344 43.984375 L 24.949219 53.773438 Z M 24.113281 55.355469 "/>
</g>
</defs>
<g id="surface1">
<path style=" stroke:none;fill-rule:nonzero;fill:rgb(96.078431%,30.980392%,20%);fill-opacity:1;" d="M 100 50 C 100 77.613281 77.613281 100 50 100 C 22.386719 100 0 77.613281 0 50 C 0 22.386719 22.386719 0 50 0 C 77.613281 0 100 22.386719 100 50 Z M 100 50 "/>
<g clip-path="url(#clip1)" clip-rule="nonzero">
<g clip-path="url(#clip2)" clip-rule="nonzero">
<path style=" stroke:none;fill-rule:nonzero;fill:rgb(86.666667%,17.254902%,14.117647%);fill-opacity:1;" d="M 15.75 75.09375 L 40.652344 100 L 100 100 L 100 41.042969 L 84.464844 25.484375 Z M 15.75 75.09375 "/>
</g>
</g>
<path style=" stroke:none;fill-rule:nonzero;fill:rgb(100%,100%,100%);fill-opacity:1;" d="M 81.988281 75.738281 L 18.011719 75.738281 C 16.285156 75.738281 14.886719 74.339844 14.886719 72.613281 L 14.886719 27.386719 C 14.886719 25.660156 16.285156 24.261719 18.011719 24.261719 L 81.988281 24.261719 C 83.714844 24.261719 85.113281 25.660156 85.113281 27.386719 L 85.113281 72.613281 C 85.113281 74.339844 83.714844 75.738281 81.988281 75.738281 Z M 81.988281 75.738281 "/>
<path style=" stroke:none;fill-rule:nonzero;fill:rgb(88.235294%,89.019608%,91.372549%);fill-opacity:1;" d="M 85.113281 32.855469 L 85.113281 27.386719 C 85.113281 25.660156 83.714844 24.261719 81.988281 24.261719 L 18.011719 24.261719 C 16.285156 24.261719 14.886719 25.660156 14.886719 27.386719 L 14.886719 32.855469 Z M 85.113281 32.855469 "/>
<path style=" stroke:none;fill-rule:nonzero;fill:rgb(94.901961%,29.411765%,27.058824%);fill-opacity:1;" d="M 21.875 28.558594 C 21.875 29.851562 20.824219 30.902344 19.53125 30.902344 C 18.238281 30.902344 17.1875 29.851562 17.1875 28.558594 C 17.1875 27.261719 18.238281 26.214844 19.53125 26.214844 C 20.824219 26.214844 21.875 27.261719 21.875 28.558594 Z M 21.875 28.558594 "/>
<path style=" stroke:none;fill-rule:nonzero;fill:rgb(100%,69.803922%,0.784314%);fill-opacity:1;" d="M 28.90625 28.558594 C 28.90625 29.851562 27.855469 30.902344 26.5625 30.902344 C 25.269531 30.902344 24.21875 29.851562 24.21875 28.558594 C 24.21875 27.261719 25.269531 26.214844 26.5625 26.214844 C 27.855469 26.214844 28.90625 27.261719 28.90625 28.558594 Z M 28.90625 28.558594 "/>
<path style=" stroke:none;fill-rule:nonzero;fill:rgb(29.803922%,73.333333%,25.490196%);fill-opacity:1;" d="M 35.9375 28.558594 C 35.9375 29.851562 34.890625 30.902344 33.59375 30.902344 C 32.300781 30.902344 31.25 29.851562 31.25 28.558594 C 31.25 27.261719 32.300781 26.214844 33.59375 26.214844 C 34.890625 26.214844 35.9375 27.261719 35.9375 28.558594 Z M 35.9375 28.558594 "/>
<g clip-path="url(#clip3)" clip-rule="nonzero">
<g clip-path="url(#clip4)" clip-rule="nonzero">
<use xlink:href="#surface7" mask="url(#mask0)"/>
</g>
</g>
<path style=" stroke:none;fill-rule:nonzero;fill:rgb(32.54902%,53.72549%,62.352941%);fill-opacity:1;" d="M 24.113281 52.191406 L 41.777344 43.984375 L 41.777344 47.886719 L 28.417969 53.738281 L 28.417969 53.808594 L 41.777344 59.660156 L 41.777344 63.5625 L 24.113281 55.355469 Z M 24.113281 52.191406 "/>
<path style=" stroke:none;fill-rule:nonzero;fill:rgb(32.54902%,53.72549%,62.352941%);fill-opacity:1;" d="M 44.5 66.566406 L 52.375 39.886719 L 56.089844 39.886719 L 48.214844 66.566406 Z M 44.5 66.566406 "/>
<path style=" stroke:none;fill-rule:nonzero;fill:rgb(32.54902%,53.72549%,62.352941%);fill-opacity:1;" d="M 75.886719 55.464844 L 58.222656 63.5625 L 58.222656 59.660156 L 71.875 53.808594 L 71.875 53.738281 L 58.222656 47.886719 L 58.222656 43.984375 L 75.886719 52.082031 Z M 75.886719 55.464844 "/>
</g>
</svg>
