<?xml version="1.0" encoding="UTF-8"?>
<svg xmlns="http://www.w3.org/2000/svg" xmlns:xlink="http://www.w3.org/1999/xlink" width="100pt" height="100pt" viewBox="0 0 100 100" version="1.1">
<g id="surface1">
<path style=" stroke:none;fill-rule:nonzero;fill:rgb(60%,80%,60%);fill-opacity:1;" d="M 100 50 C 100 77.613281 77.613281 100 50 100 C 22.386719 100 0 77.613281 0 50 C 0 22.386719 22.386719 0 50 0 C 77.613281 0 100 22.386719 100 50 Z M 100 50 "/>
<path style=" stroke:none;fill-rule:nonzero;fill:rgb(66.27451%,67.058824%,68.235294%);fill-opacity:1;" d="M 23.738281 16.53125 L 76.261719 16.53125 C 76.789062 16.53125 77.199219 16.941406 77.199219 17.46875 L 77.199219 51.464844 C 77.199219 51.992188 76.789062 52.402344 76.261719 52.402344 L 23.738281 52.402344 C 23.210938 52.402344 22.800781 51.992188 22.800781 51.464844 L 22.800781 17.46875 C 22.800781 16.941406 23.210938 16.53125 23.738281 16.53125 Z M 23.738281 16.53125 "/>
<path style=" stroke:none;fill-rule:nonzero;fill:rgb(90.196078%,64.705882%,27.058824%);fill-opacity:1;" d="M 24.96875 56.917969 L 76.320312 56.917969 L 83.46875 80.1875 L 16.53125 80.1875 Z M 24.96875 56.917969 "/>
<path style=" stroke:none;fill-rule:nonzero;fill:rgb(45.882353%,45.882353%,45.882353%);fill-opacity:1;" d="M 64.300781 61.371094 C 64.300781 61.429688 64.300781 61.488281 64.300781 61.546875 C 64.300781 61.664062 64.300781 61.78125 64.242188 61.898438 L 35.523438 61.898438 C 35.464844 61.78125 35.464844 61.664062 35.464844 61.546875 C 35.464844 61.488281 35.464844 61.429688 35.464844 61.371094 C 35.464844 61.3125 35.464844 61.253906 35.464844 61.195312 C 35.464844 59.320312 41.910156 57.738281 49.882812 57.738281 C 57.855469 57.738281 64.304688 59.320312 64.304688 61.195312 C 64.300781 61.253906 64.300781 61.3125 64.300781 61.371094 Z M 64.300781 61.371094 "/>
<path style=" stroke:none;fill-rule:nonzero;fill:rgb(41.176471%,41.176471%,41.176471%);fill-opacity:1;" d="M 64.300781 61.371094 C 64.300781 61.429688 64.300781 61.488281 64.300781 61.546875 C 64.300781 61.664062 64.300781 61.78125 64.242188 61.898438 L 48.828125 61.898438 L 48.828125 57.796875 C 49.179688 57.738281 49.53125 57.738281 49.882812 57.738281 C 57.855469 57.738281 64.304688 59.320312 64.304688 61.195312 C 64.300781 61.253906 64.300781 61.3125 64.300781 61.371094 Z M 64.300781 61.371094 "/>
<path style=" stroke:none;fill-rule:nonzero;fill:rgb(80%,80%,80%);fill-opacity:1;" d="M 44.664062 45.664062 L 55.097656 45.664062 L 55.097656 58.207031 L 44.664062 58.207031 Z M 44.664062 45.664062 "/>
<path style=" stroke:none;fill-rule:nonzero;fill:rgb(72.156863%,72.156863%,72.156863%);fill-opacity:1;" d="M 55.097656 52.402344 L 55.097656 58.207031 L 48.828125 58.207031 L 48.828125 52.402344 Z M 55.097656 52.402344 "/>
<path style=" stroke:none;fill-rule:nonzero;fill:rgb(72.156863%,72.156863%,72.156863%);fill-opacity:1;" d="M 45.488281 46.484375 L 54.511719 46.484375 L 54.511719 57.386719 L 45.488281 57.386719 Z M 45.488281 46.484375 "/>
<path style=" stroke:none;fill-rule:nonzero;fill:rgb(65.098039%,65.098039%,65.098039%);fill-opacity:1;" d="M 54.511719 52.402344 L 54.511719 57.386719 L 48.828125 57.386719 L 48.828125 52.402344 Z M 54.511719 52.402344 "/>
<path style=" stroke:none;fill-rule:nonzero;fill:rgb(30.588235%,35.294118%,38.431373%);fill-opacity:1;" d="M 25.792969 17.878906 L 75.089844 17.878906 C 75.5 17.878906 75.789062 18.230469 75.789062 18.640625 L 75.789062 49.472656 C 75.789062 49.882812 75.5 50.234375 75.089844 50.234375 L 24.910156 50.234375 C 24.5 50.234375 24.207031 49.882812 24.207031 49.472656 L 24.207031 19.519531 C 24.210938 18.640625 24.910156 17.878906 25.792969 17.878906 Z M 25.792969 17.878906 "/>
<path style=" stroke:none;fill-rule:nonzero;fill:rgb(80%,80%,80%);fill-opacity:1;" d="M 50 50.410156 C 50.410156 50.410156 50.761719 50.761719 50.761719 51.171875 C 50.761719 51.582031 50.410156 51.875 50 51.875 C 49.589844 51.875 49.238281 51.582031 49.238281 51.171875 C 49.238281 50.761719 49.589844 50.410156 50 50.410156 Z M 50 50.410156 "/>
<path style=" stroke:none;fill-rule:nonzero;fill:rgb(70.196078%,70.196078%,70.196078%);fill-opacity:1;" d="M 50 50.644531 C 50.292969 50.644531 50.527344 50.878906 50.527344 51.171875 C 50.527344 51.40625 50.292969 51.640625 50 51.640625 C 49.707031 51.640625 49.472656 51.40625 49.472656 51.171875 C 49.472656 50.878906 49.707031 50.644531 50 50.644531 Z M 50 50.644531 "/>
<path style=" stroke:none;fill-rule:nonzero;fill:rgb(76.078431%,76.470588%,77.254902%);fill-opacity:1;" d="M 27.199219 19.285156 L 30.070312 19.285156 L 30.070312 22.214844 L 27.199219 22.214844 Z M 30.65625 45.664062 L 33.527344 45.664062 L 33.527344 48.535156 L 30.65625 48.535156 Z M 27.199219 45.664062 L 30.070312 45.664062 L 30.070312 48.535156 L 27.199219 48.535156 Z M 30.65625 42.378906 L 33.527344 42.378906 L 33.527344 45.253906 L 30.65625 45.253906 Z M 27.199219 42.378906 L 30.070312 42.378906 L 30.070312 45.253906 L 27.199219 45.253906 Z M 30.65625 39.039062 L 33.527344 39.039062 L 33.527344 41.96875 L 30.65625 41.96875 Z M 27.199219 39.039062 L 30.070312 39.039062 L 30.070312 41.96875 L 27.199219 41.96875 Z M 30.65625 35.757812 L 33.527344 35.757812 L 33.527344 38.628906 L 30.65625 38.628906 Z M 27.199219 35.757812 L 30.070312 35.757812 L 30.070312 38.628906 L 27.199219 38.628906 Z M 30.65625 32.472656 L 33.527344 32.472656 L 33.527344 35.347656 L 30.65625 35.347656 Z M 27.199219 32.472656 L 30.070312 32.472656 L 30.070312 35.347656 L 27.199219 35.347656 Z M 30.65625 29.191406 L 33.527344 29.191406 L 33.527344 32.0625 L 30.65625 32.0625 Z M 27.199219 29.191406 L 30.070312 29.191406 L 30.070312 32.0625 L 27.199219 32.0625 Z M 30.65625 25.910156 L 33.527344 25.910156 L 33.527344 28.78125 L 30.65625 28.78125 Z M 27.199219 25.910156 L 30.070312 25.910156 L 30.070312 28.78125 L 27.199219 28.78125 Z M 30.65625 22.566406 L 33.527344 22.566406 L 33.527344 25.5 L 30.65625 25.5 Z M 27.199219 22.566406 L 30.070312 22.566406 L 30.070312 25.5 L 27.199219 25.5 Z M 30.65625 19.285156 L 33.527344 19.285156 L 33.527344 22.214844 L 30.65625 22.214844 Z M 30.65625 19.285156 "/>
<path style=" stroke:none;fill-rule:nonzero;fill:rgb(90.196078%,90.588235%,90.980392%);fill-opacity:1;" d="M 35.109375 19.050781 L 74.210938 19.050781 L 74.210938 48.535156 L 35.109375 48.535156 Z M 35.109375 19.050781 "/>
<path style=" stroke:none;fill-rule:nonzero;fill:rgb(70.196078%,70.196078%,70.196078%);fill-opacity:1;" d="M 35.109375 19.050781 L 74.210938 19.050781 L 74.210938 22.507812 L 35.109375 22.507812 Z M 35.109375 19.050781 "/>
<path style=" stroke:none;fill-rule:nonzero;fill:rgb(60%,60%,60%);fill-opacity:1;" d="M 39.039062 19.753906 L 42.144531 19.753906 C 42.613281 19.753906 42.964844 20.105469 42.964844 20.574219 C 42.964844 21.042969 42.613281 21.394531 42.144531 21.394531 L 39.039062 21.394531 C 38.570312 21.394531 38.21875 21.042969 38.21875 20.574219 C 38.21875 20.105469 38.570312 19.753906 39.039062 19.753906 Z M 39.039062 19.753906 "/>
<path style=" stroke:none;fill-rule:nonzero;fill:rgb(60%,60%,60%);fill-opacity:1;" d="M 44.664062 19.753906 L 47.773438 19.753906 C 48.242188 19.753906 48.59375 20.105469 48.59375 20.574219 C 48.59375 21.042969 48.242188 21.394531 47.773438 21.394531 L 44.664062 21.394531 C 44.195312 21.394531 43.84375 21.042969 43.84375 20.574219 C 43.84375 20.105469 44.195312 19.753906 44.664062 19.753906 Z M 44.664062 19.753906 "/>
<path style=" stroke:none;fill-rule:nonzero;fill:rgb(60%,60%,60%);fill-opacity:1;" d="M 50.292969 19.753906 L 53.398438 19.753906 C 53.867188 19.753906 54.21875 20.105469 54.21875 20.574219 C 54.21875 21.042969 53.867188 21.394531 53.398438 21.394531 L 50.292969 21.394531 C 49.824219 21.394531 49.472656 21.042969 49.472656 20.574219 C 49.472656 20.105469 49.824219 19.753906 50.292969 19.753906 Z M 50.292969 19.753906 "/>
<path style=" stroke:none;fill-rule:nonzero;fill:rgb(60%,60%,60%);fill-opacity:1;" d="M 55.980469 19.753906 L 59.027344 19.753906 C 59.496094 19.753906 59.90625 20.105469 59.90625 20.574219 C 59.90625 21.042969 59.496094 21.394531 59.027344 21.394531 L 55.980469 21.394531 C 55.507812 21.394531 55.097656 21.042969 55.097656 20.574219 C 55.097656 20.105469 55.507812 19.753906 55.980469 19.753906 Z M 55.980469 19.753906 "/>
<path style=" stroke:none;fill-rule:nonzero;fill:rgb(60%,60%,60%);fill-opacity:1;" d="M 61.605469 19.753906 L 64.652344 19.753906 C 65.121094 19.753906 65.535156 20.105469 65.535156 20.574219 C 65.535156 21.042969 65.121094 21.394531 64.652344 21.394531 L 61.605469 21.394531 C 61.136719 21.394531 60.726562 21.042969 60.726562 20.574219 C 60.726562 20.105469 61.136719 19.753906 61.605469 19.753906 Z M 61.605469 19.753906 "/>
<path style=" stroke:none;fill-rule:nonzero;fill:rgb(60%,60%,60%);fill-opacity:1;" d="M 67.234375 19.753906 L 70.339844 19.753906 C 70.75 19.753906 71.160156 20.105469 71.160156 20.574219 C 71.160156 21.042969 70.75 21.394531 70.339844 21.394531 L 67.234375 21.394531 C 66.765625 21.394531 66.355469 21.042969 66.355469 20.574219 C 66.355469 20.105469 66.765625 19.753906 67.234375 19.753906 Z M 67.234375 19.753906 "/>
<path style=" stroke:none;fill-rule:nonzero;fill:rgb(100%,100%,100%);fill-opacity:1;" d="M 36.460938 23.503906 L 72.917969 23.503906 L 72.917969 47.65625 L 36.460938 47.65625 Z M 36.460938 23.503906 "/>
<path style=" stroke:none;fill-rule:nonzero;fill:rgb(79.607843%,81.568627%,83.137255%);fill-opacity:1;" d="M 40.445312 37.339844 L 48.300781 37.339844 L 48.300781 42.964844 L 40.445312 42.964844 Z M 40.445312 37.339844 "/>
<path style=" stroke:none;fill-rule:nonzero;fill:rgb(31.764706%,65.882353%,69.411765%);fill-opacity:1;" d="M 41.148438 38.042969 L 47.597656 38.042969 L 47.597656 42.261719 L 41.148438 42.261719 Z M 41.148438 38.042969 "/>
<path style=" stroke:none;fill-rule:nonzero;fill:rgb(79.607843%,81.568627%,83.137255%);fill-opacity:1;" d="M 49.472656 35.40625 L 57.328125 35.40625 L 57.328125 40.972656 L 49.472656 40.972656 Z M 49.472656 35.40625 "/>
<path style=" stroke:none;fill-rule:nonzero;fill:rgb(31.764706%,65.882353%,69.411765%);fill-opacity:1;" d="M 50.175781 36.046875 L 56.683594 36.046875 L 56.683594 40.269531 L 50.175781 40.269531 Z M 50.175781 36.046875 "/>
<path style=" stroke:none;fill-rule:nonzero;fill:rgb(90.196078%,90.588235%,90.980392%);fill-opacity:1;" d="M 38.394531 25.5 L 56.273438 25.5 L 56.273438 38.21875 L 38.394531 38.21875 Z M 38.394531 25.5 "/>
<path style=" stroke:none;fill-rule:nonzero;fill:rgb(31.764706%,65.882353%,69.411765%);fill-opacity:1;" d="M 39.976562 27.082031 L 54.75 27.082031 L 54.75 36.695312 L 39.976562 36.695312 Z M 39.976562 27.082031 "/>
<path style=" stroke:none;fill-rule:nonzero;fill:rgb(80%,80%,80%);fill-opacity:1;" d="M 60.492188 25.910156 L 72.007812 25.910156 L 72.007812 27.59375 L 60.492188 27.59375 Z M 60.492188 25.910156 "/>
<path style=" stroke:none;fill-rule:nonzero;fill:rgb(90.196078%,90.196078%,90.196078%);fill-opacity:1;" d="M 60.492188 28.195312 L 71.980469 28.195312 L 71.980469 36.402344 L 60.492188 36.402344 Z M 60.492188 28.195312 "/>
<path style=" stroke:none;fill-rule:nonzero;fill:rgb(90.196078%,90.196078%,90.196078%);fill-opacity:1;" d="M 60.492188 36.871094 L 72.007812 36.871094 L 72.007812 40.960938 L 60.492188 40.960938 Z M 60.492188 36.871094 "/>
<path style=" stroke:none;fill-rule:nonzero;fill:rgb(81.176471%,58.431373%,24.313725%);fill-opacity:1;" d="M 16.53125 80.1875 L 83.515625 80.1875 L 83.515625 83.476562 L 16.53125 83.476562 Z M 16.53125 80.1875 "/>
<path style=" stroke:none;fill-rule:nonzero;fill:rgb(90.196078%,90.196078%,90.196078%);fill-opacity:1;" d="M 36.046875 64.710938 C 39.097656 64.710938 42.144531 64.710938 45.132812 64.710938 C 48.183594 64.710938 51.230469 64.710938 54.277344 64.710938 C 57.328125 64.710938 60.375 64.710938 63.363281 64.710938 C 66.414062 64.710938 69.460938 64.710938 72.507812 64.710938 C 73.035156 65.359375 73.503906 66.003906 74.03125 66.707031 C 74.558594 67.351562 75.03125 68.054688 75.554688 68.699219 C 76.027344 69.34375 76.554688 70.046875 77.082031 70.691406 C 77.550781 71.394531 78.078125 72.039062 78.546875 72.683594 C 74.5 72.683594 70.457031 72.683594 66.414062 72.683594 C 62.308594 72.683594 58.265625 72.683594 54.21875 72.683594 C 50.175781 72.683594 46.074219 72.683594 42.027344 72.683594 C 37.984375 72.683594 33.9375 72.683594 29.894531 72.683594 C 30.363281 72.039062 30.890625 71.394531 31.417969 70.691406 C 31.945312 70.046875 32.414062 69.34375 32.941406 68.699219 C 33.46875 68.054688 33.996094 67.351562 34.523438 66.707031 C 34.996094 66.003906 35.523438 65.359375 36.046875 64.710938 Z M 36.046875 64.710938 "/>
<path style=" stroke:none;fill-rule:nonzero;fill:rgb(80%,80%,80%);fill-opacity:1;" d="M 30.011719 72.566406 L 78.429688 72.566406 C 78.546875 72.566406 78.664062 72.800781 78.664062 73.035156 C 78.664062 73.328125 78.546875 73.503906 78.429688 73.503906 L 30.011719 73.503906 C 29.894531 73.503906 29.777344 73.328125 29.777344 73.035156 C 29.777344 72.800781 29.894531 72.566406 30.011719 72.566406 Z M 30.011719 72.566406 "/>
<path style=" stroke:none;fill-rule:nonzero;fill:rgb(70.196078%,70.196078%,70.196078%);fill-opacity:1;" d="M 30.011719 72.625 C 29.894531 72.625 29.835938 72.976562 29.835938 73.035156 C 29.835938 73.152344 29.894531 73.445312 30.011719 73.445312 L 78.429688 73.445312 C 78.546875 73.445312 78.605469 73.152344 78.605469 73.035156 C 78.605469 72.976562 78.546875 72.625 78.429688 72.625 Z M 30.011719 72.625 "/>
<path style=" stroke:none;fill-rule:nonzero;fill:rgb(81.176471%,81.176471%,81.176471%);fill-opacity:1;" d="M 53.574219 64.710938 L 54.277344 64.710938 C 57.328125 64.710938 60.375 64.710938 63.363281 64.710938 C 66.414062 64.710938 69.460938 64.710938 72.507812 64.710938 C 73.035156 65.359375 73.503906 66.003906 74.03125 66.707031 C 74.558594 67.351562 75.03125 68.054688 75.558594 68.699219 C 76.027344 69.34375 76.554688 70.046875 77.082031 70.691406 C 77.550781 71.394531 78.078125 72.039062 78.546875 72.683594 C 74.5 72.683594 70.457031 72.683594 66.414062 72.683594 C 62.308594 72.683594 58.265625 72.683594 54.21875 72.683594 L 53.574219 72.683594 Z M 53.574219 64.710938 "/>
<path style=" stroke:none;fill-rule:nonzero;fill:rgb(80%,80%,80%);fill-opacity:1;" d="M 33.527344 70.632812 C 35.875 70.632812 38.21875 70.632812 40.5625 70.632812 C 40.386719 70.925781 40.269531 71.21875 40.152344 71.453125 C 37.75 71.453125 35.347656 71.453125 32.941406 71.453125 C 33.117188 71.21875 33.351562 70.925781 33.527344 70.632812 Z M 33.527344 70.632812 "/>
<path style=" stroke:none;fill-rule:nonzero;fill:rgb(80%,80%,80%);fill-opacity:1;" d="M 41.03125 70.632812 C 41.792969 70.632812 42.554688 70.632812 43.316406 70.691406 C 43.199219 70.925781 43.082031 71.21875 42.964844 71.511719 C 42.203125 71.511719 41.441406 71.511719 40.679688 71.511719 C 40.738281 71.21875 40.914062 70.925781 41.03125 70.632812 Z M 41.03125 70.632812 "/>
<path style=" stroke:none;fill-rule:nonzero;fill:rgb(80%,80%,80%);fill-opacity:1;" d="M 43.671875 70.691406 C 44.429688 70.691406 45.191406 70.691406 45.957031 70.691406 C 45.839844 70.925781 45.722656 71.21875 45.664062 71.511719 C 44.902344 71.511719 44.136719 71.511719 43.316406 71.511719 C 43.433594 71.21875 43.550781 70.925781 43.671875 70.691406 Z M 43.671875 70.691406 "/>
<path style=" stroke:none;fill-rule:nonzero;fill:rgb(80%,80%,80%);fill-opacity:1;" d="M 46.308594 70.691406 C 47.070312 70.691406 47.773438 70.691406 48.535156 70.691406 C 48.476562 70.984375 48.417969 71.21875 48.359375 71.511719 C 47.597656 71.511719 46.835938 71.511719 46.015625 71.511719 C 46.132812 71.21875 46.191406 70.925781 46.308594 70.691406 Z M 46.308594 70.691406 "/>
<path style=" stroke:none;fill-rule:nonzero;fill:rgb(80%,80%,80%);fill-opacity:1;" d="M 48.945312 70.691406 C 49.648438 70.691406 50.410156 70.691406 51.171875 70.691406 C 51.113281 70.984375 51.113281 71.277344 51.054688 71.511719 C 50.292969 71.511719 49.53125 71.511719 48.710938 71.511719 C 48.769531 71.21875 48.828125 70.984375 48.945312 70.691406 Z M 48.945312 70.691406 "/>
<path style=" stroke:none;fill-rule:nonzero;fill:rgb(80%,80%,80%);fill-opacity:1;" d="M 51.523438 70.691406 C 52.285156 70.691406 53.046875 70.691406 53.808594 70.691406 C 53.808594 70.984375 53.75 71.277344 53.75 71.570312 C 52.988281 71.570312 52.226562 71.570312 51.40625 71.511719 C 51.464844 71.277344 51.523438 70.984375 51.523438 70.691406 Z M 51.523438 70.691406 "/>
<path style=" stroke:none;fill-rule:nonzero;fill:rgb(80%,80%,80%);fill-opacity:1;" d="M 54.164062 70.691406 C 54.921875 70.691406 55.6875 70.75 56.449219 70.75 C 56.449219 70.984375 56.449219 71.277344 56.449219 71.570312 C 55.6875 71.570312 54.921875 71.570312 54.101562 71.570312 C 54.164062 71.277344 54.164062 70.984375 54.164062 70.691406 Z M 54.164062 70.691406 "/>
<path style=" stroke:none;fill-rule:nonzero;fill:rgb(80%,80%,80%);fill-opacity:1;" d="M 56.800781 70.75 C 57.5625 70.75 58.324219 70.75 59.085938 70.75 C 59.085938 71.042969 59.144531 71.277344 59.144531 71.570312 C 58.382812 71.570312 57.621094 71.570312 56.800781 71.570312 C 56.800781 71.277344 56.800781 70.984375 56.800781 70.75 Z M 56.800781 70.75 "/>
<path style=" stroke:none;fill-rule:nonzero;fill:rgb(80%,80%,80%);fill-opacity:1;" d="M 59.4375 70.75 C 60.199219 70.75 60.960938 70.75 61.722656 70.75 C 61.722656 71.042969 61.78125 71.335938 61.839844 71.570312 C 61.078125 71.570312 60.316406 71.570312 59.496094 71.570312 C 59.496094 71.277344 59.4375 71.042969 59.4375 70.75 Z M 59.4375 70.75 "/>
<path style=" stroke:none;fill-rule:nonzero;fill:rgb(80%,80%,80%);fill-opacity:1;" d="M 62.074219 70.75 C 62.835938 70.75 63.597656 70.75 64.359375 70.75 C 64.417969 71.042969 64.476562 71.335938 64.539062 71.628906 C 63.773438 71.628906 63.011719 71.628906 62.191406 71.570312 C 62.132812 71.335938 62.132812 71.042969 62.074219 70.75 Z M 62.074219 70.75 "/>
<path style=" stroke:none;fill-rule:nonzero;fill:rgb(80%,80%,80%);fill-opacity:1;" d="M 64.710938 70.75 C 65.472656 70.75 66.179688 70.75 66.941406 70.75 C 67.058594 71.042969 67.117188 71.335938 67.234375 71.628906 C 66.472656 71.628906 65.710938 71.628906 64.886719 71.628906 C 64.828125 71.335938 64.769531 71.042969 64.710938 70.75 Z M 64.710938 70.75 "/>
<path style=" stroke:none;fill-rule:nonzero;fill:rgb(80%,80%,80%);fill-opacity:1;" d="M 67.292969 70.75 C 69.636719 70.808594 71.980469 70.808594 74.324219 70.808594 C 74.5 71.101562 74.617188 71.335938 74.792969 71.628906 C 72.390625 71.628906 69.988281 71.628906 67.585938 71.628906 C 67.527344 71.335938 67.410156 71.042969 67.292969 70.75 Z M 67.292969 70.75 "/>
<path style=" stroke:none;fill-rule:nonzero;fill:rgb(80%,80%,80%);fill-opacity:1;" d="M 40.269531 69.578125 C 41.03125 69.578125 41.734375 69.578125 42.496094 69.578125 C 42.320312 69.871094 42.203125 70.164062 42.027344 70.398438 C 41.265625 70.398438 40.5625 70.398438 39.800781 70.398438 C 39.976562 70.164062 40.09375 69.871094 40.269531 69.578125 Z M 40.269531 69.578125 "/>
<path style=" stroke:none;fill-rule:nonzero;fill:rgb(80%,80%,80%);fill-opacity:1;" d="M 42.847656 69.578125 C 43.550781 69.578125 44.253906 69.578125 45.015625 69.578125 C 44.902344 69.871094 44.78125 70.164062 44.667969 70.457031 C 43.902344 70.457031 43.140625 70.457031 42.378906 70.398438 C 42.554688 70.164062 42.671875 69.871094 42.847656 69.578125 Z M 42.847656 69.578125 "/>
<path style=" stroke:none;fill-rule:nonzero;fill:rgb(80%,80%,80%);fill-opacity:1;" d="M 45.371094 69.578125 C 46.074219 69.636719 46.835938 69.636719 47.539062 69.636719 C 47.480469 69.871094 47.363281 70.164062 47.246094 70.457031 C 46.484375 70.457031 45.78125 70.457031 45.015625 70.457031 C 45.132812 70.164062 45.25 69.871094 45.371094 69.578125 Z M 45.371094 69.578125 "/>
<path style=" stroke:none;fill-rule:nonzero;fill:rgb(80%,80%,80%);fill-opacity:1;" d="M 47.890625 69.636719 C 48.652344 69.636719 49.355469 69.636719 50.058594 69.636719 C 50 69.929688 49.941406 70.164062 49.882812 70.457031 C 49.121094 70.457031 48.359375 70.457031 47.597656 70.457031 C 47.714844 70.164062 47.832031 69.871094 47.890625 69.636719 Z M 47.890625 69.636719 "/>
<path style=" stroke:none;fill-rule:nonzero;fill:rgb(80%,80%,80%);fill-opacity:1;" d="M 50.410156 69.636719 C 51.171875 69.636719 51.875 69.636719 52.636719 69.636719 C 52.578125 69.929688 52.519531 70.164062 52.460938 70.457031 C 51.699219 70.457031 50.996094 70.457031 50.234375 70.457031 C 50.292969 70.164062 50.351562 69.929688 50.410156 69.636719 Z M 50.410156 69.636719 "/>
<path style=" stroke:none;fill-rule:nonzero;fill:rgb(80%,80%,80%);fill-opacity:1;" d="M 52.988281 69.636719 C 53.691406 69.636719 54.453125 69.636719 55.15625 69.636719 C 55.15625 69.929688 55.097656 70.222656 55.097656 70.457031 C 54.335938 70.457031 53.574219 70.457031 52.8125 70.457031 C 52.871094 70.222656 52.929688 69.929688 52.988281 69.636719 Z M 52.988281 69.636719 "/>
<path style=" stroke:none;fill-rule:nonzero;fill:rgb(80%,80%,80%);fill-opacity:1;" d="M 55.507812 69.636719 C 56.214844 69.636719 56.976562 69.636719 57.679688 69.636719 C 57.679688 69.929688 57.679688 70.222656 57.679688 70.515625 C 56.917969 70.515625 56.214844 70.515625 55.453125 70.457031 C 55.453125 70.222656 55.507812 69.929688 55.507812 69.636719 Z M 55.507812 69.636719 "/>
<path style=" stroke:none;fill-rule:nonzero;fill:rgb(80%,80%,80%);fill-opacity:1;" d="M 58.03125 69.636719 C 58.792969 69.636719 59.496094 69.636719 60.257812 69.695312 C 60.257812 69.929688 60.257812 70.222656 60.316406 70.515625 C 59.554688 70.515625 58.792969 70.515625 58.03125 70.515625 C 58.03125 70.222656 58.03125 69.929688 58.03125 69.636719 Z M 58.03125 69.636719 "/>
<path style=" stroke:none;fill-rule:nonzero;fill:rgb(80%,80%,80%);fill-opacity:1;" d="M 60.609375 69.695312 C 61.3125 69.695312 62.015625 69.695312 62.777344 69.695312 C 62.835938 69.929688 62.835938 70.222656 62.894531 70.515625 C 62.132812 70.515625 61.429688 70.515625 60.667969 70.515625 C 60.609375 70.222656 60.609375 69.929688 60.609375 69.695312 Z M 60.609375 69.695312 "/>
<path style=" stroke:none;fill-rule:nonzero;fill:rgb(80%,80%,80%);fill-opacity:1;" d="M 63.128906 69.695312 C 63.832031 69.695312 64.59375 69.695312 65.296875 69.695312 C 65.359375 69.988281 65.472656 70.222656 65.535156 70.515625 C 64.769531 70.515625 64.007812 70.515625 63.246094 70.515625 C 63.246094 70.222656 63.1875 69.929688 63.128906 69.695312 Z M 63.128906 69.695312 "/>
<path style=" stroke:none;fill-rule:nonzero;fill:rgb(80%,80%,80%);fill-opacity:1;" d="M 65.648438 69.695312 C 66.414062 69.695312 67.117188 69.695312 67.820312 69.695312 C 67.9375 69.988281 68.054688 70.28125 68.113281 70.515625 C 67.351562 70.515625 66.648438 70.515625 65.882812 70.515625 C 65.828125 70.222656 65.710938 69.988281 65.648438 69.695312 Z M 65.648438 69.695312 "/>
<path style=" stroke:none;fill-rule:nonzero;fill:rgb(80%,80%,80%);fill-opacity:1;" d="M 68.171875 69.695312 C 70.046875 69.695312 71.921875 69.695312 73.738281 69.695312 C 73.914062 69.988281 74.03125 70.28125 74.207031 70.574219 C 72.273438 70.574219 70.398438 70.574219 68.464844 70.515625 C 68.40625 70.28125 68.289062 69.988281 68.171875 69.695312 Z M 68.171875 69.695312 "/>
<path style=" stroke:none;fill-rule:nonzero;fill:rgb(80%,80%,80%);fill-opacity:1;" d="M 34.40625 69.578125 C 36.226562 69.578125 38.101562 69.578125 39.917969 69.578125 C 39.742188 69.871094 39.625 70.164062 39.449219 70.398438 C 37.515625 70.398438 35.636719 70.398438 33.703125 70.398438 C 33.9375 70.105469 34.175781 69.871094 34.40625 69.578125 Z M 34.40625 69.578125 "/>
<path style=" stroke:none;fill-rule:nonzero;fill:rgb(80%,80%,80%);fill-opacity:1;" d="M 38.453125 68.523438 C 39.15625 68.523438 39.859375 68.523438 40.5625 68.523438 C 40.445312 68.816406 40.269531 69.050781 40.09375 69.34375 C 39.332031 69.34375 38.628906 69.34375 37.925781 69.34375 C 38.101562 69.050781 38.277344 68.816406 38.453125 68.523438 Z M 38.453125 68.523438 "/>
<path style=" stroke:none;fill-rule:nonzero;fill:rgb(80%,80%,80%);fill-opacity:1;" d="M 40.914062 68.523438 C 41.617188 68.523438 42.320312 68.523438 43.023438 68.523438 C 42.90625 68.816406 42.730469 69.109375 42.613281 69.34375 C 41.851562 69.34375 41.148438 69.34375 40.445312 69.34375 C 40.5625 69.050781 40.738281 68.816406 40.914062 68.523438 Z M 40.914062 68.523438 "/>
<path style=" stroke:none;fill-rule:nonzero;fill:rgb(80%,80%,80%);fill-opacity:1;" d="M 43.375 68.523438 C 44.078125 68.523438 44.78125 68.523438 45.488281 68.523438 C 45.371094 68.816406 45.25 69.109375 45.132812 69.34375 C 44.371094 69.34375 43.671875 69.34375 42.964844 69.34375 C 43.082031 69.109375 43.199219 68.816406 43.375 68.523438 Z M 43.375 68.523438 "/>
<path style=" stroke:none;fill-rule:nonzero;fill:rgb(80%,80%,80%);fill-opacity:1;" d="M 45.78125 68.523438 C 46.484375 68.523438 47.1875 68.523438 47.890625 68.523438 C 47.832031 68.816406 47.714844 69.109375 47.65625 69.402344 C 46.894531 69.402344 46.191406 69.34375 45.488281 69.34375 C 45.601562 69.109375 45.722656 68.816406 45.78125 68.523438 Z M 45.78125 68.523438 "/>
<path style=" stroke:none;fill-rule:nonzero;fill:rgb(80%,80%,80%);fill-opacity:1;" d="M 48.242188 68.523438 C 48.945312 68.523438 49.648438 68.523438 50.351562 68.582031 C 50.292969 68.816406 50.234375 69.109375 50.175781 69.402344 C 49.414062 69.402344 48.710938 69.402344 48.007812 69.402344 C 48.066406 69.109375 48.183594 68.816406 48.242188 68.523438 Z M 48.242188 68.523438 "/>
<path style=" stroke:none;fill-rule:nonzero;fill:rgb(80%,80%,80%);fill-opacity:1;" d="M 50.703125 68.582031 C 51.40625 68.582031 52.109375 68.582031 52.8125 68.582031 C 52.753906 68.816406 52.695312 69.109375 52.636719 69.402344 C 51.933594 69.402344 51.230469 69.402344 50.46875 69.402344 C 50.585938 69.109375 50.644531 68.816406 50.703125 68.582031 Z M 50.703125 68.582031 "/>
<path style=" stroke:none;fill-rule:nonzero;fill:rgb(80%,80%,80%);fill-opacity:1;" d="M 53.164062 68.582031 C 53.867188 68.582031 54.570312 68.582031 55.277344 68.582031 C 55.21875 68.875 55.21875 69.109375 55.15625 69.402344 C 54.453125 69.402344 53.75 69.402344 52.988281 69.402344 C 53.046875 69.109375 53.105469 68.816406 53.164062 68.582031 Z M 53.164062 68.582031 "/>
<path style=" stroke:none;fill-rule:nonzero;fill:rgb(80%,80%,80%);fill-opacity:1;" d="M 55.570312 68.582031 C 56.273438 68.582031 56.976562 68.582031 57.679688 68.582031 C 57.679688 68.875 57.679688 69.109375 57.679688 69.402344 C 56.976562 69.402344 56.273438 69.402344 55.507812 69.402344 C 55.570312 69.109375 55.570312 68.875 55.570312 68.582031 Z M 55.570312 68.582031 "/>
<path style=" stroke:none;fill-rule:nonzero;fill:rgb(80%,80%,80%);fill-opacity:1;" d="M 58.03125 68.582031 C 58.734375 68.582031 59.4375 68.582031 60.140625 68.582031 C 60.140625 68.875 60.199219 69.167969 60.199219 69.402344 C 59.496094 69.402344 58.792969 69.402344 58.03125 69.402344 C 58.03125 69.109375 58.03125 68.875 58.03125 68.582031 Z M 58.03125 68.582031 "/>
<path style=" stroke:none;fill-rule:nonzero;fill:rgb(80%,80%,80%);fill-opacity:1;" d="M 60.492188 68.582031 C 61.195312 68.582031 61.898438 68.582031 62.601562 68.582031 C 62.660156 68.875 62.660156 69.167969 62.71875 69.460938 C 62.015625 69.460938 61.253906 69.402344 60.550781 69.402344 C 60.550781 69.167969 60.492188 68.875 60.492188 68.582031 Z M 60.492188 68.582031 "/>
<path style=" stroke:none;fill-rule:nonzero;fill:rgb(80%,80%,80%);fill-opacity:1;" d="M 62.894531 68.582031 C 63.65625 68.582031 64.300781 68.582031 65.003906 68.582031 C 65.125 68.875 65.183594 69.167969 65.238281 69.460938 C 64.539062 69.460938 63.773438 69.460938 63.070312 69.460938 C 63.011719 69.167969 62.953125 68.875 62.894531 68.582031 Z M 62.894531 68.582031 "/>
<path style=" stroke:none;fill-rule:nonzero;fill:rgb(80%,80%,80%);fill-opacity:1;" d="M 65.359375 68.582031 C 66.0625 68.582031 66.765625 68.582031 67.46875 68.582031 C 67.585938 68.875 67.644531 69.167969 67.761719 69.460938 C 67.058594 69.460938 66.296875 69.460938 65.59375 69.460938 C 65.535156 69.167969 65.472656 68.875 65.359375 68.582031 Z M 65.359375 68.582031 "/>
<path style=" stroke:none;fill-rule:nonzero;fill:rgb(80%,80%,80%);fill-opacity:1;" d="M 67.820312 68.582031 C 68.523438 68.582031 69.226562 68.582031 69.929688 68.582031 C 70.046875 68.875 70.164062 69.167969 70.28125 69.460938 C 69.578125 69.460938 68.816406 69.460938 68.113281 69.460938 C 67.996094 69.167969 67.9375 68.875 67.820312 68.582031 Z M 67.820312 68.582031 "/>
<path style=" stroke:none;fill-rule:nonzero;fill:rgb(80%,80%,80%);fill-opacity:1;" d="M 70.28125 68.582031 C 71.21875 68.640625 72.214844 68.640625 73.152344 68.640625 C 73.328125 68.875 73.445312 69.167969 73.621094 69.460938 C 72.625 69.460938 71.628906 69.460938 70.632812 69.460938 C 70.515625 69.167969 70.398438 68.875 70.28125 68.582031 Z M 70.28125 68.582031 "/>
<path style=" stroke:none;fill-rule:nonzero;fill:rgb(80%,80%,80%);fill-opacity:1;" d="M 35.226562 68.523438 C 36.167969 68.523438 37.164062 68.523438 38.101562 68.523438 C 37.925781 68.816406 37.75 69.050781 37.574219 69.34375 C 36.578125 69.34375 35.582031 69.34375 34.585938 69.34375 C 34.757812 69.050781 34.996094 68.816406 35.226562 68.523438 Z M 35.226562 68.523438 "/>
<path style=" stroke:none;fill-rule:nonzero;fill:rgb(80%,80%,80%);fill-opacity:1;" d="M 35.933594 67.46875 C 36.636719 67.46875 37.339844 67.46875 37.984375 67.46875 C 37.867188 67.703125 37.691406 67.996094 37.515625 68.289062 C 36.8125 68.289062 36.109375 68.289062 35.40625 68.289062 C 35.582031 67.996094 35.816406 67.703125 35.933594 67.46875 Z M 35.933594 67.46875 "/>
<path style=" stroke:none;fill-rule:nonzero;fill:rgb(80%,80%,80%);fill-opacity:1;" d="M 38.335938 67.46875 C 38.980469 67.46875 39.683594 67.46875 40.328125 67.46875 C 40.210938 67.761719 40.09375 67.996094 39.917969 68.289062 C 39.214844 68.289062 38.511719 68.289062 37.808594 68.289062 C 37.984375 67.996094 38.160156 67.703125 38.335938 67.46875 Z M 38.335938 67.46875 "/>
<path style=" stroke:none;fill-rule:nonzero;fill:rgb(80%,80%,80%);fill-opacity:1;" d="M 40.679688 67.46875 C 41.382812 67.46875 42.027344 67.46875 42.730469 67.46875 C 42.613281 67.761719 42.496094 67.996094 42.320312 68.289062 C 41.617188 68.289062 40.972656 68.289062 40.269531 68.289062 C 40.386719 67.996094 40.5625 67.761719 40.679688 67.46875 Z M 40.679688 67.46875 "/>
<path style=" stroke:none;fill-rule:nonzero;fill:rgb(80%,80%,80%);fill-opacity:1;" d="M 43.023438 67.46875 C 43.726562 67.46875 44.371094 67.46875 45.078125 67.46875 C 45.015625 67.761719 44.902344 67.996094 44.78125 68.289062 C 44.082031 68.289062 43.375 68.289062 42.671875 68.289062 C 42.789062 67.996094 42.964844 67.761719 43.023438 67.46875 Z M 43.023438 67.46875 "/>
<path style=" stroke:none;fill-rule:nonzero;fill:rgb(80%,80%,80%);fill-opacity:1;" d="M 45.429688 67.46875 C 46.074219 67.46875 46.777344 67.46875 47.421875 67.46875 C 47.363281 67.761719 47.304688 68.054688 47.1875 68.289062 C 46.484375 68.289062 45.78125 68.289062 45.078125 68.289062 C 45.191406 67.996094 45.3125 67.761719 45.429688 67.46875 Z M 45.429688 67.46875 "/>
<path style=" stroke:none;fill-rule:nonzero;fill:rgb(80%,80%,80%);fill-opacity:1;" d="M 47.773438 67.46875 C 48.417969 67.46875 49.121094 67.46875 49.824219 67.46875 C 49.765625 67.761719 49.707031 68.054688 49.589844 68.289062 C 48.945312 68.289062 48.242188 68.289062 47.539062 68.289062 C 47.597656 68.054688 47.714844 67.761719 47.773438 67.46875 Z M 47.773438 67.46875 "/>
<path style=" stroke:none;fill-rule:nonzero;fill:rgb(80%,80%,80%);fill-opacity:1;" d="M 50.117188 67.46875 C 50.820312 67.46875 51.464844 67.46875 52.167969 67.46875 C 52.109375 67.761719 52.109375 68.054688 52.050781 68.289062 C 51.347656 68.289062 50.644531 68.289062 49.941406 68.289062 C 50 68.054688 50.058594 67.761719 50.117188 67.46875 Z M 50.117188 67.46875 "/>
<path style=" stroke:none;fill-rule:nonzero;fill:rgb(80%,80%,80%);fill-opacity:1;" d="M 52.460938 67.46875 C 53.164062 67.46875 53.867188 67.46875 54.511719 67.46875 C 54.511719 67.761719 54.511719 68.054688 54.453125 68.347656 C 53.75 68.347656 53.046875 68.347656 52.402344 68.289062 C 52.402344 68.054688 52.460938 67.761719 52.460938 67.46875 Z M 52.460938 67.46875 "/>
<path style=" stroke:none;fill-rule:nonzero;fill:rgb(80%,80%,80%);fill-opacity:1;" d="M 54.863281 67.46875 C 55.507812 67.46875 56.214844 67.46875 56.859375 67.46875 C 56.917969 67.761719 56.917969 68.054688 56.917969 68.347656 C 56.214844 68.347656 55.507812 68.347656 54.808594 68.347656 C 54.808594 68.054688 54.863281 67.761719 54.863281 67.46875 Z M 54.863281 67.46875 "/>
<path style=" stroke:none;fill-rule:nonzero;fill:rgb(80%,80%,80%);fill-opacity:1;" d="M 57.210938 67.46875 C 57.855469 67.46875 58.558594 67.46875 59.261719 67.46875 C 59.261719 67.761719 59.320312 68.054688 59.320312 68.347656 C 58.617188 68.347656 57.914062 68.347656 57.210938 68.347656 C 57.210938 68.054688 57.210938 67.761719 57.210938 67.46875 Z M 57.210938 67.46875 "/>
<path style=" stroke:none;fill-rule:nonzero;fill:rgb(80%,80%,80%);fill-opacity:1;" d="M 59.554688 67.46875 C 60.257812 67.527344 60.902344 67.527344 61.605469 67.527344 C 61.664062 67.761719 61.722656 68.054688 61.722656 68.347656 C 61.019531 68.347656 60.375 68.347656 59.671875 68.347656 C 59.613281 68.054688 59.613281 67.761719 59.554688 67.46875 Z M 59.554688 67.46875 "/>
<path style=" stroke:none;fill-rule:nonzero;fill:rgb(80%,80%,80%);fill-opacity:1;" d="M 61.957031 67.527344 C 62.601562 67.527344 63.304688 67.527344 63.949219 67.527344 C 64.070312 67.761719 64.125 68.054688 64.183594 68.347656 C 63.480469 68.347656 62.777344 68.347656 62.074219 68.347656 C 62.015625 68.054688 62.015625 67.761719 61.957031 67.527344 Z M 61.957031 67.527344 "/>
<path style=" stroke:none;fill-rule:nonzero;fill:rgb(80%,80%,80%);fill-opacity:1;" d="M 64.300781 67.527344 C 64.949219 67.527344 65.648438 67.527344 66.355469 67.527344 C 66.414062 67.820312 66.53125 68.054688 66.589844 68.347656 C 65.882812 68.347656 65.183594 68.347656 64.535156 68.347656 C 64.417969 68.054688 64.359375 67.761719 64.300781 67.527344 Z M 64.300781 67.527344 "/>
<path style=" stroke:none;fill-rule:nonzero;fill:rgb(80%,80%,80%);fill-opacity:1;" d="M 66.707031 67.527344 C 67.351562 67.527344 68.054688 67.527344 68.757812 67.527344 C 68.875 67.820312 68.933594 68.054688 69.050781 68.347656 C 68.347656 68.347656 67.644531 68.347656 67 68.347656 C 66.882812 68.054688 66.765625 67.820312 66.707031 67.527344 Z M 66.707031 67.527344 "/>
<path style=" stroke:none;fill-rule:nonzero;fill:rgb(80%,80%,80%);fill-opacity:1;" d="M 69.109375 67.527344 C 70.28125 67.527344 71.453125 67.527344 72.625 67.527344 C 72.742188 67.820312 72.917969 68.113281 73.035156 68.347656 C 71.863281 68.347656 70.632812 68.347656 69.460938 68.347656 C 69.34375 68.054688 69.226562 67.820312 69.109375 67.527344 Z M 69.109375 67.527344 "/>
<path style=" stroke:none;fill-rule:nonzero;fill:rgb(80%,80%,80%);fill-opacity:1;" d="M 37.75 66.121094 C 38.160156 66.121094 38.511719 66.121094 38.863281 66.121094 C 39.097656 66.121094 39.214844 66.238281 39.214844 66.292969 C 39.15625 66.414062 38.921875 66.472656 38.6875 66.472656 C 38.335938 66.472656 37.984375 66.472656 37.632812 66.472656 C 37.398438 66.472656 37.222656 66.414062 37.28125 66.292969 C 37.339844 66.238281 37.574219 66.121094 37.75 66.121094 Z M 37.75 66.121094 "/>
<path style=" stroke:none;fill-rule:nonzero;fill:rgb(80%,80%,80%);fill-opacity:1;" d="M 39.917969 66.121094 C 40.269531 66.121094 40.621094 66.121094 40.972656 66.121094 C 41.207031 66.121094 41.382812 66.238281 41.324219 66.292969 C 41.265625 66.414062 41.089844 66.472656 40.855469 66.472656 C 40.503906 66.472656 40.152344 66.472656 39.742188 66.472656 C 39.566406 66.472656 39.390625 66.414062 39.449219 66.292969 C 39.449219 66.238281 39.683594 66.121094 39.917969 66.121094 Z M 39.917969 66.121094 "/>
<path style=" stroke:none;fill-rule:nonzero;fill:rgb(80%,80%,80%);fill-opacity:1;" d="M 42.027344 66.121094 C 42.378906 66.121094 42.730469 66.121094 43.140625 66.121094 C 43.316406 66.121094 43.492188 66.238281 43.433594 66.292969 C 43.433594 66.414062 43.199219 66.472656 43.023438 66.472656 C 42.613281 66.472656 42.261719 66.472656 41.910156 66.472656 C 41.675781 66.472656 41.558594 66.414062 41.558594 66.292969 C 41.617188 66.238281 41.792969 66.121094 42.027344 66.121094 Z M 42.027344 66.121094 "/>
<path style=" stroke:none;fill-rule:nonzero;fill:rgb(80%,80%,80%);fill-opacity:1;" d="M 44.136719 66.121094 C 44.492188 66.121094 44.902344 66.121094 45.253906 66.121094 C 45.488281 66.121094 45.601562 66.238281 45.601562 66.292969 C 45.601562 66.414062 45.371094 66.472656 45.132812 66.472656 C 44.78125 66.472656 44.429688 66.472656 44.082031 66.472656 C 43.84375 66.472656 43.667969 66.414062 43.726562 66.292969 C 43.726562 66.238281 43.960938 66.121094 44.136719 66.121094 Z M 44.136719 66.121094 "/>
<path style=" stroke:none;fill-rule:nonzero;fill:rgb(80%,80%,80%);fill-opacity:1;" d="M 46.308594 66.121094 C 46.660156 66.121094 47.011719 66.121094 47.363281 66.121094 C 47.597656 66.121094 47.773438 66.238281 47.714844 66.292969 C 47.714844 66.414062 47.539062 66.472656 47.304688 66.472656 C 46.953125 66.472656 46.542969 66.472656 46.191406 66.472656 C 46.011719 66.472656 45.839844 66.414062 45.839844 66.292969 C 45.898438 66.238281 46.074219 66.121094 46.308594 66.121094 Z M 46.308594 66.121094 "/>
<path style=" stroke:none;fill-rule:nonzero;fill:rgb(80%,80%,80%);fill-opacity:1;" d="M 48.417969 66.121094 C 48.769531 66.121094 49.121094 66.121094 49.53125 66.121094 C 49.707031 66.121094 49.882812 66.238281 49.882812 66.292969 C 49.882812 66.414062 49.648438 66.472656 49.472656 66.472656 C 49.0625 66.472656 48.710938 66.472656 48.359375 66.472656 C 48.125 66.472656 47.949219 66.414062 48.007812 66.292969 C 48.007812 66.238281 48.183594 66.121094 48.417969 66.121094 Z M 48.417969 66.121094 "/>
<path style=" stroke:none;fill-rule:nonzero;fill:rgb(80%,80%,80%);fill-opacity:1;" d="M 50.527344 66.121094 C 50.878906 66.121094 51.230469 66.121094 51.640625 66.121094 C 51.816406 66.121094 51.992188 66.238281 51.992188 66.292969 C 51.992188 66.414062 51.816406 66.472656 51.582031 66.472656 C 51.230469 66.472656 50.878906 66.472656 50.527344 66.472656 C 50.292969 66.472656 50.117188 66.414062 50.117188 66.292969 C 50.117188 66.238281 50.351562 66.121094 50.527344 66.121094 Z M 50.527344 66.121094 "/>
<path style=" stroke:none;fill-rule:nonzero;fill:rgb(80%,80%,80%);fill-opacity:1;" d="M 52.636719 66.121094 C 53.046875 66.121094 53.398438 66.121094 53.75 66.121094 C 53.984375 66.121094 54.160156 66.238281 54.160156 66.292969 C 54.160156 66.414062 53.988281 66.472656 53.75 66.472656 C 53.398438 66.472656 52.988281 66.472656 52.636719 66.472656 C 52.402344 66.472656 52.226562 66.414062 52.285156 66.292969 C 52.285156 66.238281 52.460938 66.121094 52.636719 66.121094 Z M 52.636719 66.121094 "/>
<path style=" stroke:none;fill-rule:nonzero;fill:rgb(80%,80%,80%);fill-opacity:1;" d="M 54.808594 66.121094 C 55.15625 66.121094 55.507812 66.179688 55.863281 66.179688 C 56.097656 66.179688 56.273438 66.238281 56.273438 66.296875 C 56.273438 66.414062 56.097656 66.472656 55.917969 66.472656 C 55.507812 66.472656 55.160156 66.472656 54.808594 66.472656 C 54.574219 66.472656 54.398438 66.414062 54.398438 66.296875 C 54.398438 66.238281 54.570312 66.121094 54.808594 66.121094 Z M 54.808594 66.121094 "/>
<path style=" stroke:none;fill-rule:nonzero;fill:rgb(80%,80%,80%);fill-opacity:1;" d="M 56.917969 66.179688 C 57.269531 66.179688 57.621094 66.179688 58.03125 66.179688 C 58.207031 66.179688 58.441406 66.238281 58.441406 66.296875 C 58.441406 66.414062 58.265625 66.472656 58.03125 66.472656 C 57.679688 66.472656 57.328125 66.472656 56.976562 66.472656 C 56.742188 66.472656 56.566406 66.414062 56.566406 66.296875 C 56.507812 66.238281 56.683594 66.179688 56.917969 66.179688 Z M 56.917969 66.179688 "/>
<path style=" stroke:none;fill-rule:nonzero;fill:rgb(80%,80%,80%);fill-opacity:1;" d="M 59.027344 66.179688 C 59.4375 66.179688 59.789062 66.179688 60.140625 66.179688 C 60.375 66.179688 60.550781 66.238281 60.550781 66.296875 C 60.609375 66.414062 60.433594 66.472656 60.199219 66.472656 C 59.847656 66.472656 59.496094 66.472656 59.085938 66.472656 C 58.851562 66.472656 58.675781 66.414062 58.675781 66.296875 C 58.675781 66.238281 58.851562 66.179688 59.027344 66.179688 Z M 59.027344 66.179688 "/>
<path style=" stroke:none;fill-rule:nonzero;fill:rgb(80%,80%,80%);fill-opacity:1;" d="M 61.195312 66.179688 C 61.546875 66.179688 61.898438 66.179688 62.25 66.179688 C 62.484375 66.179688 62.660156 66.238281 62.71875 66.355469 C 62.71875 66.414062 62.542969 66.472656 62.367188 66.472656 C 61.957031 66.472656 61.605469 66.472656 61.253906 66.472656 C 61.019531 66.472656 60.84375 66.414062 60.785156 66.355469 C 60.785156 66.238281 60.960938 66.179688 61.195312 66.179688 Z M 61.195312 66.179688 "/>
<path style=" stroke:none;fill-rule:nonzero;fill:rgb(80%,80%,80%);fill-opacity:1;" d="M 63.304688 66.179688 C 63.65625 66.179688 64.007812 66.179688 64.417969 66.179688 C 64.59375 66.179688 64.828125 66.238281 64.828125 66.355469 C 64.890625 66.414062 64.710938 66.472656 64.476562 66.472656 C 64.125 66.472656 63.773438 66.472656 63.421875 66.472656 C 63.1875 66.472656 62.953125 66.414062 62.953125 66.355469 C 62.953125 66.238281 63.070312 66.179688 63.304688 66.179688 Z M 63.304688 66.179688 "/>
<path style=" stroke:none;fill-rule:nonzero;fill:rgb(80%,80%,80%);fill-opacity:1;" d="M 65.414062 66.179688 C 65.769531 66.179688 66.179688 66.179688 66.53125 66.179688 C 66.765625 66.179688 66.941406 66.238281 67 66.355469 C 67 66.414062 66.882812 66.53125 66.648438 66.53125 C 66.296875 66.53125 65.882812 66.53125 65.535156 66.53125 C 65.296875 66.53125 65.125 66.414062 65.0625 66.355469 C 65.0625 66.238281 65.183594 66.179688 65.414062 66.179688 Z M 65.414062 66.179688 "/>
<path style=" stroke:none;fill-rule:nonzero;fill:rgb(80%,80%,80%);fill-opacity:1;" d="M 67.585938 66.179688 C 67.9375 66.179688 68.289062 66.179688 68.640625 66.179688 C 68.875 66.179688 69.050781 66.238281 69.109375 66.355469 C 69.167969 66.414062 68.992188 66.53125 68.816406 66.53125 C 68.40625 66.53125 68.054688 66.53125 67.703125 66.53125 C 67.46875 66.53125 67.234375 66.414062 67.234375 66.355469 C 67.175781 66.238281 67.351562 66.179688 67.585938 66.179688 Z M 67.585938 66.179688 "/>
<path style=" stroke:none;fill-rule:nonzero;fill:rgb(80%,80%,80%);fill-opacity:1;" d="M 69.695312 66.179688 C 70.046875 66.179688 70.398438 66.179688 70.75 66.179688 C 70.984375 66.179688 71.21875 66.238281 71.277344 66.355469 C 71.335938 66.414062 71.160156 66.53125 70.925781 66.53125 C 70.574219 66.53125 70.222656 66.53125 69.871094 66.53125 C 69.636719 66.53125 69.402344 66.414062 69.34375 66.355469 C 69.34375 66.238281 69.460938 66.179688 69.695312 66.179688 Z M 69.695312 66.179688 "/>
<path style=" stroke:none;fill-rule:nonzero;fill:rgb(80%,80%,80%);fill-opacity:1;" d="M 38.511719 65.0625 C 38.921875 65.0625 39.214844 65.125 39.214844 65.238281 C 39.214844 65.359375 38.921875 65.414062 38.511719 65.414062 C 38.101562 65.414062 37.808594 65.359375 37.808594 65.238281 C 37.808594 65.125 38.160156 65.0625 38.511719 65.0625 Z M 38.511719 65.0625 "/>
<path style=" stroke:none;fill-rule:nonzero;fill:rgb(80%,80%,80%);fill-opacity:1;" d="M 40.210938 65.125 C 40.445312 65.125 40.679688 65.183594 40.679688 65.238281 C 40.679688 65.300781 40.445312 65.359375 40.210938 65.359375 C 39.917969 65.359375 39.742188 65.300781 39.742188 65.238281 C 39.742188 65.183594 39.917969 65.125 40.210938 65.125 Z M 40.210938 65.125 "/>
<path style=" stroke:none;fill-rule:nonzero;fill:rgb(72.156863%,72.156863%,72.156863%);fill-opacity:1;" d="M 53.164062 70.691406 C 53.398438 70.691406 53.574219 70.691406 53.808594 70.691406 C 53.808594 70.984375 53.75 71.277344 53.75 71.570312 C 53.515625 71.570312 53.339844 71.570312 53.105469 71.570312 C 53.105469 71.277344 53.164062 70.984375 53.164062 70.691406 Z M 53.164062 70.691406 "/>
<path style=" stroke:none;fill-rule:nonzero;fill:rgb(72.156863%,72.156863%,72.156863%);fill-opacity:1;" d="M 54.164062 70.691406 C 54.921875 70.691406 55.6875 70.75 56.449219 70.75 C 56.449219 70.984375 56.449219 71.277344 56.449219 71.570312 C 55.6875 71.570312 54.921875 71.570312 54.101562 71.570312 C 54.164062 71.277344 54.164062 70.984375 54.164062 70.691406 Z M 54.164062 70.691406 "/>
<path style=" stroke:none;fill-rule:nonzero;fill:rgb(72.156863%,72.156863%,72.156863%);fill-opacity:1;" d="M 56.800781 70.75 C 57.5625 70.75 58.324219 70.75 59.085938 70.75 C 59.085938 71.042969 59.144531 71.277344 59.144531 71.570312 C 58.382812 71.570312 57.621094 71.570312 56.800781 71.570312 C 56.800781 71.277344 56.800781 70.984375 56.800781 70.75 Z M 56.800781 70.75 "/>
<path style=" stroke:none;fill-rule:nonzero;fill:rgb(72.156863%,72.156863%,72.156863%);fill-opacity:1;" d="M 59.4375 70.75 C 60.199219 70.75 60.960938 70.75 61.722656 70.75 C 61.722656 71.042969 61.78125 71.335938 61.839844 71.570312 C 61.078125 71.570312 60.316406 71.570312 59.496094 71.570312 C 59.496094 71.277344 59.4375 71.042969 59.4375 70.75 Z M 59.4375 70.75 "/>
<path style=" stroke:none;fill-rule:nonzero;fill:rgb(72.156863%,72.156863%,72.156863%);fill-opacity:1;" d="M 62.074219 70.75 C 62.835938 70.75 63.597656 70.75 64.359375 70.75 C 64.417969 71.042969 64.476562 71.335938 64.539062 71.628906 C 63.773438 71.628906 63.011719 71.628906 62.191406 71.570312 C 62.132812 71.335938 62.132812 71.042969 62.074219 70.75 Z M 62.074219 70.75 "/>
<path style=" stroke:none;fill-rule:nonzero;fill:rgb(72.156863%,72.156863%,72.156863%);fill-opacity:1;" d="M 64.710938 70.75 C 65.472656 70.75 66.179688 70.75 66.941406 70.75 C 67.058594 71.042969 67.117188 71.335938 67.234375 71.628906 C 66.472656 71.628906 65.710938 71.628906 64.886719 71.628906 C 64.828125 71.335938 64.769531 71.042969 64.710938 70.75 Z M 64.710938 70.75 "/>
<path style=" stroke:none;fill-rule:nonzero;fill:rgb(72.156863%,72.156863%,72.156863%);fill-opacity:1;" d="M 67.292969 70.75 C 69.636719 70.808594 71.980469 70.808594 74.324219 70.808594 C 74.5 71.101562 74.617188 71.335938 74.792969 71.628906 C 72.390625 71.628906 69.988281 71.628906 67.585938 71.628906 C 67.527344 71.335938 67.410156 71.042969 67.292969 70.75 Z M 67.292969 70.75 "/>
<path style=" stroke:none;fill-rule:nonzero;fill:rgb(72.156863%,72.156863%,72.156863%);fill-opacity:1;" d="M 53.339844 69.636719 C 53.925781 69.636719 54.511719 69.636719 55.160156 69.636719 C 55.160156 69.929688 55.097656 70.222656 55.097656 70.457031 C 54.453125 70.457031 53.808594 70.457031 53.222656 70.457031 C 53.222656 70.222656 53.28125 69.929688 53.339844 69.636719 Z M 53.339844 69.636719 "/>
<path style=" stroke:none;fill-rule:nonzero;fill:rgb(72.156863%,72.156863%,72.156863%);fill-opacity:1;" d="M 55.507812 69.636719 C 56.214844 69.636719 56.976562 69.636719 57.679688 69.636719 C 57.679688 69.929688 57.679688 70.222656 57.679688 70.515625 C 56.917969 70.515625 56.214844 70.515625 55.453125 70.457031 C 55.453125 70.222656 55.507812 69.929688 55.507812 69.636719 Z M 55.507812 69.636719 "/>
<path style=" stroke:none;fill-rule:nonzero;fill:rgb(72.156863%,72.156863%,72.156863%);fill-opacity:1;" d="M 58.03125 69.636719 C 58.792969 69.636719 59.496094 69.636719 60.257812 69.695312 C 60.257812 69.929688 60.257812 70.222656 60.316406 70.515625 C 59.554688 70.515625 58.792969 70.515625 58.03125 70.515625 C 58.03125 70.222656 58.03125 69.929688 58.03125 69.636719 Z M 58.03125 69.636719 "/>
<path style=" stroke:none;fill-rule:nonzero;fill:rgb(72.156863%,72.156863%,72.156863%);fill-opacity:1;" d="M 60.609375 69.695312 C 61.3125 69.695312 62.015625 69.695312 62.777344 69.695312 C 62.835938 69.929688 62.835938 70.222656 62.894531 70.515625 C 62.132812 70.515625 61.429688 70.515625 60.667969 70.515625 C 60.609375 70.222656 60.609375 69.929688 60.609375 69.695312 Z M 60.609375 69.695312 "/>
<path style=" stroke:none;fill-rule:nonzero;fill:rgb(72.156863%,72.156863%,72.156863%);fill-opacity:1;" d="M 63.128906 69.695312 C 63.832031 69.695312 64.59375 69.695312 65.296875 69.695312 C 65.359375 69.988281 65.472656 70.222656 65.535156 70.515625 C 64.769531 70.515625 64.007812 70.515625 63.246094 70.515625 C 63.246094 70.222656 63.1875 69.929688 63.128906 69.695312 Z M 63.128906 69.695312 "/>
<path style=" stroke:none;fill-rule:nonzero;fill:rgb(72.156863%,72.156863%,72.156863%);fill-opacity:1;" d="M 65.648438 69.695312 C 66.414062 69.695312 67.117188 69.695312 67.820312 69.695312 C 67.9375 69.988281 68.054688 70.28125 68.113281 70.515625 C 67.351562 70.515625 66.648438 70.515625 65.882812 70.515625 C 65.828125 70.222656 65.710938 69.988281 65.648438 69.695312 Z M 65.648438 69.695312 "/>
<path style=" stroke:none;fill-rule:nonzero;fill:rgb(72.156863%,72.156863%,72.156863%);fill-opacity:1;" d="M 68.171875 69.695312 C 70.046875 69.695312 71.921875 69.695312 73.738281 69.695312 C 73.914062 69.988281 74.03125 70.28125 74.207031 70.574219 C 72.273438 70.574219 70.398438 70.574219 68.464844 70.515625 C 68.40625 70.28125 68.289062 69.988281 68.171875 69.695312 Z M 68.171875 69.695312 "/>
<path style=" stroke:none;fill-rule:nonzero;fill:rgb(72.156863%,72.156863%,72.156863%);fill-opacity:1;" d="M 53.457031 68.582031 C 54.042969 68.582031 54.628906 68.582031 55.277344 68.582031 C 55.21875 68.875 55.21875 69.109375 55.15625 69.402344 C 54.570312 69.402344 53.984375 69.402344 53.339844 69.402344 C 53.398438 69.109375 53.398438 68.816406 53.457031 68.582031 Z M 53.457031 68.582031 "/>
<path style=" stroke:none;fill-rule:nonzero;fill:rgb(72.156863%,72.156863%,72.156863%);fill-opacity:1;" d="M 55.570312 68.582031 C 56.273438 68.582031 56.976562 68.582031 57.679688 68.582031 C 57.679688 68.875 57.679688 69.109375 57.679688 69.402344 C 56.976562 69.402344 56.273438 69.402344 55.507812 69.402344 C 55.570312 69.109375 55.570312 68.875 55.570312 68.582031 Z M 55.570312 68.582031 "/>
<path style=" stroke:none;fill-rule:nonzero;fill:rgb(72.156863%,72.156863%,72.156863%);fill-opacity:1;" d="M 58.03125 68.582031 C 58.734375 68.582031 59.4375 68.582031 60.140625 68.582031 C 60.140625 68.875 60.199219 69.167969 60.199219 69.402344 C 59.496094 69.402344 58.792969 69.402344 58.03125 69.402344 C 58.03125 69.109375 58.03125 68.875 58.03125 68.582031 Z M 58.03125 68.582031 "/>
<path style=" stroke:none;fill-rule:nonzero;fill:rgb(72.156863%,72.156863%,72.156863%);fill-opacity:1;" d="M 60.492188 68.582031 C 61.195312 68.582031 61.898438 68.582031 62.601562 68.582031 C 62.660156 68.875 62.660156 69.167969 62.71875 69.460938 C 62.015625 69.460938 61.253906 69.402344 60.550781 69.402344 C 60.550781 69.167969 60.492188 68.875 60.492188 68.582031 Z M 60.492188 68.582031 "/>
<path style=" stroke:none;fill-rule:nonzero;fill:rgb(72.156863%,72.156863%,72.156863%);fill-opacity:1;" d="M 62.894531 68.582031 C 63.65625 68.582031 64.359375 68.582031 65.003906 68.582031 C 65.125 68.875 65.183594 69.167969 65.238281 69.460938 C 64.539062 69.460938 63.773438 69.460938 63.070312 69.460938 C 63.011719 69.167969 62.953125 68.875 62.894531 68.582031 Z M 62.894531 68.582031 "/>
<path style=" stroke:none;fill-rule:nonzero;fill:rgb(72.156863%,72.156863%,72.156863%);fill-opacity:1;" d="M 65.359375 68.582031 C 66.0625 68.582031 66.765625 68.582031 67.46875 68.582031 C 67.585938 68.875 67.644531 69.167969 67.761719 69.460938 C 67.058594 69.460938 66.296875 69.460938 65.59375 69.460938 C 65.535156 69.167969 65.472656 68.875 65.359375 68.582031 Z M 65.359375 68.582031 "/>
<path style=" stroke:none;fill-rule:nonzero;fill:rgb(72.156863%,72.156863%,72.156863%);fill-opacity:1;" d="M 67.820312 68.582031 C 68.523438 68.582031 69.226562 68.582031 69.929688 68.582031 C 70.046875 68.875 70.164062 69.167969 70.28125 69.460938 C 69.578125 69.460938 68.816406 69.460938 68.113281 69.460938 C 67.996094 69.167969 67.9375 68.875 67.820312 68.582031 Z M 67.820312 68.582031 "/>
<path style=" stroke:none;fill-rule:nonzero;fill:rgb(72.156863%,72.156863%,72.156863%);fill-opacity:1;" d="M 70.28125 68.582031 C 71.21875 68.640625 72.214844 68.640625 73.152344 68.640625 C 73.328125 68.875 73.445312 69.167969 73.621094 69.460938 C 72.625 69.460938 71.628906 69.460938 70.632812 69.460938 C 70.515625 69.167969 70.398438 68.875 70.28125 68.582031 Z M 70.28125 68.582031 "/>
<path style=" stroke:none;fill-rule:nonzero;fill:rgb(72.156863%,72.156863%,72.156863%);fill-opacity:1;" d="M 53.515625 67.46875 C 53.867188 67.46875 54.21875 67.46875 54.511719 67.46875 C 54.511719 67.761719 54.511719 68.054688 54.453125 68.347656 C 54.164062 68.347656 53.808594 68.347656 53.457031 68.347656 C 53.515625 68.054688 53.515625 67.761719 53.515625 67.46875 Z M 53.515625 67.46875 "/>
<path style=" stroke:none;fill-rule:nonzero;fill:rgb(72.156863%,72.156863%,72.156863%);fill-opacity:1;" d="M 54.863281 67.46875 C 55.507812 67.46875 56.214844 67.46875 56.859375 67.46875 C 56.917969 67.761719 56.917969 68.054688 56.917969 68.347656 C 56.214844 68.347656 55.507812 68.347656 54.808594 68.347656 C 54.808594 68.054688 54.863281 67.761719 54.863281 67.46875 Z M 54.863281 67.46875 "/>
<path style=" stroke:none;fill-rule:nonzero;fill:rgb(72.156863%,72.156863%,72.156863%);fill-opacity:1;" d="M 57.210938 67.46875 C 57.855469 67.46875 58.558594 67.46875 59.261719 67.46875 C 59.261719 67.761719 59.320312 68.054688 59.320312 68.347656 C 58.617188 68.347656 57.914062 68.347656 57.210938 68.347656 C 57.210938 68.054688 57.210938 67.761719 57.210938 67.46875 Z M 57.210938 67.46875 "/>
<path style=" stroke:none;fill-rule:nonzero;fill:rgb(72.156863%,72.156863%,72.156863%);fill-opacity:1;" d="M 59.554688 67.46875 C 60.257812 67.527344 60.902344 67.527344 61.605469 67.527344 C 61.664062 67.761719 61.722656 68.054688 61.722656 68.347656 C 61.019531 68.347656 60.375 68.347656 59.671875 68.347656 C 59.613281 68.054688 59.613281 67.761719 59.554688 67.46875 Z M 59.554688 67.46875 "/>
<path style=" stroke:none;fill-rule:nonzero;fill:rgb(72.156863%,72.156863%,72.156863%);fill-opacity:1;" d="M 61.957031 67.527344 C 62.601562 67.527344 63.304688 67.527344 63.949219 67.527344 C 64.070312 67.761719 64.125 68.054688 64.183594 68.347656 C 63.480469 68.347656 62.777344 68.347656 62.074219 68.347656 C 62.015625 68.054688 62.015625 67.761719 61.957031 67.527344 Z M 61.957031 67.527344 "/>
<path style=" stroke:none;fill-rule:nonzero;fill:rgb(72.156863%,72.156863%,72.156863%);fill-opacity:1;" d="M 64.300781 67.527344 C 64.949219 67.527344 65.648438 67.527344 66.355469 67.527344 C 66.414062 67.820312 66.53125 68.054688 66.589844 68.347656 C 65.882812 68.347656 65.183594 68.347656 64.535156 68.347656 C 64.417969 68.054688 64.359375 67.761719 64.300781 67.527344 Z M 64.300781 67.527344 "/>
<path style=" stroke:none;fill-rule:nonzero;fill:rgb(72.156863%,72.156863%,72.156863%);fill-opacity:1;" d="M 66.707031 67.527344 C 67.351562 67.527344 68.054688 67.527344 68.757812 67.527344 C 68.875 67.820312 68.933594 68.054688 69.050781 68.347656 C 68.347656 68.347656 67.644531 68.347656 67 68.347656 C 66.882812 68.054688 66.765625 67.820312 66.707031 67.527344 Z M 66.707031 67.527344 "/>
<path style=" stroke:none;fill-rule:nonzero;fill:rgb(72.156863%,72.156863%,72.156863%);fill-opacity:1;" d="M 69.109375 67.527344 C 70.28125 67.527344 71.453125 67.527344 72.625 67.527344 C 72.742188 67.820312 72.917969 68.113281 73.035156 68.347656 C 71.863281 68.347656 70.632812 68.347656 69.460938 68.347656 C 69.34375 68.054688 69.226562 67.820312 69.109375 67.527344 Z M 69.109375 67.527344 "/>
<path style=" stroke:none;fill-rule:nonzero;fill:rgb(72.156863%,72.156863%,72.156863%);fill-opacity:1;" d="M 53.515625 66.121094 C 53.632812 66.121094 53.691406 66.121094 53.75 66.121094 C 53.988281 66.121094 54.164062 66.238281 54.164062 66.292969 C 54.164062 66.414062 53.988281 66.472656 53.75 66.472656 C 53.691406 66.472656 53.632812 66.472656 53.515625 66.472656 C 53.515625 66.355469 53.515625 66.238281 53.515625 66.121094 Z M 53.515625 66.121094 "/>
<path style=" stroke:none;fill-rule:nonzero;fill:rgb(72.156863%,72.156863%,72.156863%);fill-opacity:1;" d="M 54.808594 66.121094 C 55.15625 66.121094 55.507812 66.179688 55.863281 66.179688 C 56.097656 66.179688 56.273438 66.238281 56.273438 66.296875 C 56.273438 66.414062 56.097656 66.472656 55.917969 66.472656 C 55.507812 66.472656 55.160156 66.472656 54.808594 66.472656 C 54.574219 66.472656 54.398438 66.414062 54.398438 66.296875 C 54.398438 66.238281 54.570312 66.121094 54.808594 66.121094 Z M 54.808594 66.121094 "/>
<path style=" stroke:none;fill-rule:nonzero;fill:rgb(72.156863%,72.156863%,72.156863%);fill-opacity:1;" d="M 56.917969 66.179688 C 57.269531 66.179688 57.621094 66.179688 58.03125 66.179688 C 58.207031 66.179688 58.441406 66.238281 58.441406 66.296875 C 58.441406 66.414062 58.265625 66.472656 58.03125 66.472656 C 57.679688 66.472656 57.328125 66.472656 56.976562 66.472656 C 56.742188 66.472656 56.566406 66.414062 56.566406 66.296875 C 56.507812 66.238281 56.683594 66.179688 56.917969 66.179688 Z M 56.917969 66.179688 "/>
<path style=" stroke:none;fill-rule:nonzero;fill:rgb(72.156863%,72.156863%,72.156863%);fill-opacity:1;" d="M 59.027344 66.179688 C 59.4375 66.179688 59.789062 66.179688 60.140625 66.179688 C 60.375 66.179688 60.550781 66.238281 60.550781 66.296875 C 60.609375 66.414062 60.433594 66.472656 60.199219 66.472656 C 59.847656 66.472656 59.496094 66.472656 59.085938 66.472656 C 58.851562 66.472656 58.675781 66.414062 58.675781 66.296875 C 58.675781 66.238281 58.851562 66.179688 59.027344 66.179688 Z M 59.027344 66.179688 "/>
<path style=" stroke:none;fill-rule:nonzero;fill:rgb(72.156863%,72.156863%,72.156863%);fill-opacity:1;" d="M 61.195312 66.179688 C 61.546875 66.179688 61.898438 66.179688 62.25 66.179688 C 62.484375 66.179688 62.660156 66.238281 62.71875 66.355469 C 62.71875 66.414062 62.542969 66.472656 62.367188 66.472656 C 61.957031 66.472656 61.605469 66.472656 61.253906 66.472656 C 61.019531 66.472656 60.84375 66.414062 60.785156 66.355469 C 60.785156 66.238281 60.960938 66.179688 61.195312 66.179688 Z M 61.195312 66.179688 "/>
<path style=" stroke:none;fill-rule:nonzero;fill:rgb(72.156863%,72.156863%,72.156863%);fill-opacity:1;" d="M 63.304688 66.179688 C 63.65625 66.179688 64.007812 66.179688 64.417969 66.179688 C 64.59375 66.179688 64.828125 66.238281 64.828125 66.355469 C 64.890625 66.414062 64.710938 66.472656 64.476562 66.472656 C 64.125 66.472656 63.773438 66.472656 63.421875 66.472656 C 63.1875 66.472656 62.953125 66.414062 62.953125 66.355469 C 62.953125 66.238281 63.070312 66.179688 63.304688 66.179688 Z M 63.304688 66.179688 "/>
<path style=" stroke:none;fill-rule:nonzero;fill:rgb(72.156863%,72.156863%,72.156863%);fill-opacity:1;" d="M 65.414062 66.179688 C 65.769531 66.179688 66.179688 66.179688 66.53125 66.179688 C 66.765625 66.179688 66.941406 66.238281 67 66.355469 C 67 66.414062 66.882812 66.53125 66.648438 66.53125 C 66.296875 66.53125 65.882812 66.53125 65.535156 66.53125 C 65.296875 66.53125 65.125 66.414062 65.0625 66.355469 C 65.0625 66.238281 65.183594 66.179688 65.414062 66.179688 Z M 65.414062 66.179688 "/>
<path style=" stroke:none;fill-rule:nonzero;fill:rgb(72.156863%,72.156863%,72.156863%);fill-opacity:1;" d="M 67.585938 66.179688 C 67.9375 66.179688 68.289062 66.179688 68.640625 66.179688 C 68.875 66.179688 69.050781 66.238281 69.109375 66.355469 C 69.167969 66.414062 68.992188 66.53125 68.816406 66.53125 C 68.40625 66.53125 68.054688 66.53125 67.703125 66.53125 C 67.46875 66.53125 67.234375 66.414062 67.234375 66.355469 C 67.175781 66.238281 67.351562 66.179688 67.585938 66.179688 Z M 67.585938 66.179688 "/>
<path style=" stroke:none;fill-rule:nonzero;fill:rgb(72.156863%,72.156863%,72.156863%);fill-opacity:1;" d="M 69.695312 66.179688 C 70.046875 66.179688 70.398438 66.179688 70.75 66.179688 C 70.984375 66.179688 71.21875 66.238281 71.277344 66.355469 C 71.335938 66.414062 71.160156 66.53125 70.925781 66.53125 C 70.574219 66.53125 70.222656 66.53125 69.871094 66.53125 C 69.636719 66.53125 69.402344 66.414062 69.34375 66.355469 C 69.34375 66.238281 69.460938 66.179688 69.695312 66.179688 Z M 69.695312 66.179688 "/>
<path style=" stroke:none;fill-rule:nonzero;fill:rgb(72.156863%,72.156863%,72.156863%);fill-opacity:1;" d="M 53.574219 72.566406 L 78.429688 72.566406 C 78.546875 72.566406 78.664062 72.800781 78.664062 73.035156 C 78.664062 73.328125 78.546875 73.503906 78.429688 73.503906 L 53.574219 73.503906 Z M 53.574219 72.566406 "/>
<path style=" stroke:none;fill-rule:nonzero;fill:rgb(63.137255%,63.137255%,63.137255%);fill-opacity:1;" d="M 53.574219 73.445312 L 78.429688 73.445312 C 78.546875 73.445312 78.605469 73.152344 78.605469 73.035156 C 78.605469 72.976562 78.546875 72.625 78.429688 72.625 L 53.574219 72.625 Z M 53.574219 73.445312 "/>
<path style=" stroke:none;fill-rule:nonzero;fill:rgb(100%,80%,60%);fill-opacity:1;" d="M 78.195312 75.554688 L 78.253906 74.324219 L 80.714844 74.96875 Z M 78.195312 75.554688 "/>
<path style=" stroke:none;fill-rule:nonzero;fill:rgb(100%,80%,60%);fill-opacity:1;" d="M 78.195312 75.554688 L 78.253906 74.324219 L 78.429688 74.382812 C 78.546875 74.445312 78.664062 74.558594 78.722656 74.617188 C 78.78125 74.734375 78.429688 74.855469 78.429688 74.910156 C 78.371094 75.03125 78.722656 75.144531 78.78125 75.203125 C 78.78125 75.265625 78.546875 75.382812 78.371094 75.5 Z M 78.195312 75.554688 "/>
<path style=" stroke:none;fill-rule:nonzero;fill:rgb(30.196078%,30.196078%,30.196078%);fill-opacity:1;" d="M 80.128906 74.796875 L 80.714844 74.96875 L 80.128906 75.089844 Z M 80.128906 74.796875 "/>
<path style=" stroke:none;fill-rule:nonzero;fill:rgb(90.196078%,72.156863%,0%);fill-opacity:1;" d="M 78.195312 75.554688 L 58.324219 75.554688 C 57.328125 75.554688 57.328125 74.324219 58.324219 74.324219 L 78.253906 74.324219 C 78.3125 74.5 78.605469 74.558594 78.605469 74.617188 C 78.605469 74.675781 78.253906 74.796875 78.253906 74.96875 C 78.253906 75.089844 78.722656 75.203125 78.605469 75.265625 C 78.546875 75.320312 78.371094 75.441406 78.195312 75.554688 Z M 78.195312 75.554688 "/>
<path style=" stroke:none;fill-rule:nonzero;fill:rgb(100%,80%,0%);fill-opacity:1;" d="M 78.488281 74.734375 C 78.371094 74.796875 78.253906 74.855469 78.253906 74.96875 C 78.253906 75.03125 78.371094 75.089844 78.488281 75.144531 L 59.613281 75.144531 L 59.613281 74.734375 Z M 78.488281 74.734375 "/>
<path style=" stroke:none;fill-rule:nonzero;fill:rgb(90.196078%,72.156863%,0%);fill-opacity:1;" d="M 78.195312 75.554688 L 59.613281 75.554688 L 59.613281 75.144531 L 78.488281 75.144531 C 78.605469 75.203125 78.664062 75.203125 78.605469 75.265625 C 78.546875 75.320312 78.371094 75.441406 78.195312 75.554688 Z M 78.195312 75.554688 "/>
<path style=" stroke:none;fill-rule:nonzero;fill:rgb(81.176471%,65.098039%,0%);fill-opacity:1;" d="M 59.613281 75.554688 L 59.085938 75.554688 L 59.085938 74.324219 L 59.613281 74.324219 Z M 59.613281 75.554688 "/>
<path style=" stroke:none;fill-rule:nonzero;fill:rgb(80%,20%,0%);fill-opacity:1;" d="M 59.085938 75.554688 L 58.324219 75.554688 C 57.269531 75.554688 57.328125 74.324219 58.324219 74.324219 L 59.085938 74.324219 Z M 59.085938 75.554688 "/>
<path style=" stroke:none;fill-rule:nonzero;fill:rgb(30.588235%,35.294118%,38.431373%);fill-opacity:1;" d="M 56.449219 53.691406 L 56.449219 55.570312 L 76.320312 55.570312 C 76.90625 55.570312 77.433594 55.980469 77.609375 56.507812 L 84.761719 79.835938 C 84.761719 79.953125 84.816406 80.070312 84.816406 80.1875 L 84.816406 83.46875 C 84.816406 84.230469 84.230469 84.816406 83.46875 84.816406 L 16.53125 84.816406 C 15.769531 84.816406 15.183594 84.230469 15.183594 83.46875 L 15.183594 80.1875 C 15.183594 80.070312 15.242188 79.894531 15.300781 79.777344 L 20.339844 65.828125 L 18.113281 61.195312 C 16.648438 60.960938 15.476562 59.671875 15.476562 58.089844 C 15.476562 56.390625 16.765625 54.984375 18.40625 54.921875 L 21.453125 48.886719 L 21.453125 17.46875 C 21.453125 16.238281 22.507812 15.179688 23.738281 15.179688 L 76.261719 15.179688 C 77.492188 15.179688 78.546875 16.238281 78.546875 17.46875 L 78.546875 51.464844 C 78.546875 52.695312 77.492188 53.691406 76.261719 53.691406 Z M 57.152344 56.917969 L 55.097656 56.917969 L 55.097656 52.402344 L 76.261719 52.402344 C 76.789062 52.402344 77.199219 51.992188 77.199219 51.464844 L 77.199219 17.46875 C 77.199219 16.941406 76.789062 16.53125 76.261719 16.53125 L 23.738281 16.53125 C 23.210938 16.53125 22.800781 16.941406 22.800781 17.46875 L 22.800781 51.464844 C 22.800781 51.992188 23.210938 52.402344 23.738281 52.402344 L 44.664062 52.402344 L 44.664062 56.917969 L 24.96875 56.917969 L 20.164062 70.222656 L 18.757812 74.03125 L 16.53125 80.1875 L 16.53125 83.46875 L 83.46875 83.46875 L 83.46875 80.1875 L 76.320312 56.917969 Z M 43.316406 55.570312 L 43.316406 53.691406 L 23.738281 53.691406 C 23.445312 53.691406 23.210938 53.691406 23.035156 53.574219 L 21.453125 56.625 C 21.6875 57.035156 21.804688 57.5625 21.804688 58.089844 C 21.804688 58.675781 21.628906 59.261719 21.335938 59.789062 L 22.039062 61.253906 L 23.738281 56.449219 C 23.972656 55.917969 24.441406 55.566406 24.972656 55.566406 L 43.316406 55.566406 Z M 21.511719 62.601562 L 20.105469 59.671875 C 20.515625 59.261719 20.808594 58.675781 20.808594 58.089844 C 20.808594 57.5625 20.574219 57.035156 20.28125 56.683594 L 22.097656 53.046875 C 21.746094 52.636719 21.453125 52.050781 21.453125 51.464844 L 21.453125 51.230469 L 19.050781 55.980469 C 18.933594 55.921875 18.757812 55.921875 18.640625 55.921875 C 17.46875 55.921875 16.53125 56.917969 16.53125 58.089844 C 16.53125 59.261719 17.46875 60.199219 18.640625 60.199219 C 18.699219 60.199219 18.757812 60.199219 18.816406 60.199219 L 20.867188 64.480469 Z M 21.511719 62.601562 "/>
<path style=" stroke:none;fill-rule:nonzero;fill:rgb(14.901961%,65.098039%,60.392157%);fill-opacity:1;" d="M 17.585938 57.5625 L 18.816406 56.976562 L 27.082031 74.382812 L 25.851562 74.96875 Z M 17.585938 57.5625 "/>
<path style=" stroke:none;fill-rule:nonzero;fill:rgb(14.901961%,65.098039%,60.392157%);fill-opacity:1;" d="M 27.609375 42.203125 L 26.378906 41.558594 L 17.644531 58.734375 L 18.875 59.378906 Z M 27.609375 42.203125 "/>
<path style=" stroke:none;fill-rule:nonzero;fill:rgb(0%,52.941176%,47.843137%);fill-opacity:1;" d="M 27.316406 39.976562 L 25.792969 41.5 C 25.382812 41.910156 25.382812 42.613281 25.792969 43.023438 C 26.261719 43.433594 26.964844 43.433594 27.375 43.023438 L 28.839844 41.5 C 28.488281 41.441406 28.136719 41.265625 27.84375 40.972656 C 27.550781 40.738281 27.375 40.386719 27.316406 39.976562 Z M 27.316406 39.976562 "/>
<path style=" stroke:none;fill-rule:nonzero;fill:rgb(14.901961%,65.098039%,60.392157%);fill-opacity:1;" d="M 46.421875 38.6875 L 32.53125 50.703125 L 29.953125 41.617188 L 35.695312 35.695312 Z M 46.421875 38.6875 "/>
<path style=" stroke:none;fill-rule:nonzero;fill:rgb(0%,58.823529%,53.333333%);fill-opacity:1;" d="M 32.289062 33.871094 L 27.851562 38.308594 C 27.109375 39.050781 27.109375 40.253906 27.851562 40.996094 L 27.855469 41 C 28.601562 41.746094 29.804688 41.746094 30.546875 41 L 34.984375 36.566406 C 35.726562 35.824219 35.726562 34.621094 34.984375 33.875 L 34.976562 33.871094 C 34.234375 33.128906 33.03125 33.128906 32.289062 33.871094 Z M 32.289062 33.871094 "/>
<path style=" stroke:none;fill-rule:nonzero;fill:rgb(0%,52.941176%,47.843137%);fill-opacity:1;" d="M 18.640625 55.980469 C 19.804688 55.980469 20.75 56.925781 20.75 58.089844 C 20.75 59.253906 19.804688 60.199219 18.640625 60.199219 C 17.476562 60.199219 16.53125 59.253906 16.53125 58.089844 C 16.53125 56.925781 17.476562 55.980469 18.640625 55.980469 Z M 18.640625 55.980469 "/>
<path style=" stroke:none;fill-rule:nonzero;fill:rgb(0%,47.843137%,43.137255%);fill-opacity:1;" d="M 28.78125 70.925781 C 28.722656 70.808594 28.722656 70.632812 28.722656 70.515625 L 28.722656 70.164062 C 28.722656 69.402344 29.308594 68.816406 30.070312 68.816406 L 32.53125 68.816406 C 33.292969 68.816406 33.878906 69.402344 33.878906 70.164062 L 33.878906 70.515625 C 33.878906 70.632812 33.878906 70.808594 33.820312 70.925781 Z M 28.78125 70.925781 "/>
<path style=" stroke:none;fill-rule:nonzero;fill:rgb(0%,52.941176%,47.843137%);fill-opacity:1;" d="M 21.570312 70.925781 L 41.074219 70.925781 C 42.144531 70.925781 43.007812 71.792969 43.007812 72.859375 L 43.007812 72.972656 C 43.007812 74.039062 42.144531 74.90625 41.074219 74.90625 L 21.570312 74.90625 C 20.503906 74.90625 19.636719 74.039062 19.636719 72.972656 L 19.636719 72.859375 C 19.636719 71.792969 20.503906 70.925781 21.570312 70.925781 Z M 21.570312 70.925781 "/>
</g>
</svg>
